<svg xmlns="http://www.w3.org/2000/svg" viewBox="0 0 900 800">
  <!-- Titre -->
  <text x="450" y="30" font-family="Arial" font-size="20" text-anchor="middle" font-weight="bold">Diagramme d'activité - Système de réservation de vols</text>
  
  <!-- Couloirs -->
  <rect x="50" y="50" width="250" height="700" fill="#f8f8f8" stroke="#000" stroke-width="1"/>
  <rect x="300" y="50" width="300" height="700" fill="#f0f0f0" stroke="#000" stroke-width="1"/>
  <rect x="600" y="50" width="250" height="700" fill="#f8f8f8" stroke="#000" stroke-width="1"/>
  
  <text x="175" y="70" font-family="Arial" font-size="16" text-anchor="middle" font-weight="bold">Client</text>
  <text x="450" y="70" font-family="Arial" font-size="16" text-anchor="middle" font-weight="bold">Système</text>
  <text x="725" y="70" font-family="Arial" font-size="16" text-anchor="middle" font-weight="bold">Gestionnaire</text>
  
  <line x1="50" y1="80" x2="850" y2="80" stroke="#000" stroke-width="1"/>
  
  <!-- Flux principal: Recherche et Réservation -->
  <!-- Début -->
  <circle cx="175" cy="110" r="10" fill="#000"/>
  
  <!-- Activités Client -->
  <rect x="100" y="140" width="150" height="40" rx="10" ry="10" fill="#e1f5fe" stroke="#000" stroke-width="1.5"/>
  <text x="175" y="165" font-family="Arial" font-size="12" text-anchor="middle">Rechercher un vol</text>
  
  <!-- Activités Système -->
  <rect x="375" y="220" width="150" height="40" rx="10" ry="10" fill="#e8f5e9" stroke="#000" stroke-width="1.5"/>
  <text x="450" y="245" font-family="Arial" font-size="12" text-anchor="middle">Afficher les résultats</text>
  
  <!-- Décision Client -->
  <polygon points="175,300 200,330 175,360 150,330" fill="#fffde7" stroke="#000" stroke-width="1.5"/>
  <text x="175" y="335" font-family="Arial" font-size="12" text-anchor="middle">Vol disponible?</text>
  
  <!-- Activités Client (suite) -->
  <rect x="100" y="390" width="150" height="40" rx="10" ry="10" fill="#e1f5fe" stroke="#000" stroke-width="1.5"/>
  <text x="175" y="415" font-family="Arial" font-size="12" text-anchor="middle">Effectuer réservation</text>
  
  <!-- Activités Système (suite) -->
  <rect x="375" y="470" width="150" height="40" rx="10" ry="10" fill="#e8f5e9" stroke="#000" stroke-width="1.5"/>
  <text x="450" y="495" font-family="Arial" font-size="12" text-anchor="middle">Enregistrer réservation</text>
  
  <!-- Activités Gestionnaire -->
  <rect x="650" y="470" width="150" height="40" rx="10" ry="10" fill="#fff8e1" stroke="#000" stroke-width="1.5"/>
  <text x="725" y="495" font-family="Arial" font-size="12" text-anchor="middle">Voir nouvelles réservations</text>
  
  <rect x="650" y="550" width="150" height="40" rx="10" ry="10" fill="#fff8e1" stroke="#000" stroke-width="1.5"/>
  <text x="725" y="575" font-family="Arial" font-size="12" text-anchor="middle">Confirmer réservation</text>
  
  <!-- Activités Système (fin) -->
  <rect x="375" y="630" width="150" height="40" rx="10" ry="10" fill="#e8f5e9" stroke="#000" stroke-width="1.5"/>
  <text x="450" y="655" font-family="Arial" font-size="12" text-anchor="middle">Mettre à jour statut</text>
  
  <!-- Activités Client (fin) -->
  <rect x="100" y="630" width="150" height="40" rx="10" ry="10" fill="#e1f5fe" stroke="#000" stroke-width="1.5"/>
  <text x="175" y="655" font-family="Arial" font-size="12" text-anchor="middle">Consulter confirmation</text>
  
  <!-- Fin -->
  <circle cx="175" cy="720" r="15" fill="#fff" stroke="#000" stroke-width="2"/>
  <circle cx="175" cy="720" r="8" fill="#000"/>
  
  <!-- Flux alternatif: Non disponible -->
  <rect x="280" y="330" width="100" height="40" rx="10" ry="10" fill="#e1f5fe" stroke="#000" stroke-width="1.5"/>
  <text x="330" y="355" font-family="Arial" font-size="12" text-anchor="middle">Rechercher autre vol</text>
  
  <!-- Connexions -->
  <!-- De début à Recherche -->
  <line x1="175" y1="120" x2="175" y2="140" stroke="#000" stroke-width="1.5" marker-end="url(#arrow)"/>
  
  <!-- De Recherche à Afficher -->
  <line x1="175" y1="180" x2="175" y2="200" stroke="#000" stroke-width="1.5"/>
  <line x1="175" y1="200" x2="450" y2="200" stroke="#000" stroke-width="1.5"/>
  <line x1="450" y1="200" x2="450" y2="220" stroke="#000" stroke-width="1.5" marker-end="url(#arrow)"/>
  
  <!-- De Afficher à Décision -->
  <line x1="450" y1="260" x2="450" y2="280" stroke="#000" stroke-width="1.5"/>
  <line x1="450" y1="280" x2="175" y2="280" stroke="#000" stroke-width="1.5"/>
  <line x1="175" y1="280" x2="175" y2="300" stroke="#000" stroke-width="1.5" marker-end="url(#arrow)"/>
  
  <!-- De Décision à Réserver (Oui) -->
  <line x1="175" y1="360" x2="175" y2="390" stroke="#000" stroke-width="1.5" marker-end="url(#arrow)"/>
  <text x="185" y="380" font-family="Arial" font-size="12">Oui</text>
  
  <!-- De Décision à Autre recherche (Non) -->
  <line x1="200" y1="330" x2="280" y2="330" stroke="#000" stroke-width="1.5" marker-end="url(#arrow)"/>
  <text x="225" y="325" font-family="Arial" font-size="12">Non</text>
  
  <!-- De Autre recherche à Recherche -->
  <line x1="330" y1="330" x2="350" y2="330" stroke="#000" stroke-width="1.5"/>
  <line x1="350" y1="330" x2="350" y2="160" stroke="#000" stroke-width="1.5"/>
  <line x1="350" y1="160" x2="250" y2="160" stroke="#000" stroke-width="1.5" marker-end="url(#arrow)"/>
  
  <!-- De Réserver à Enregistrer -->
  <line x1="175" y1="430" x2="175" y2="450" stroke="#000" stroke-width="1.5"/>
  <line x1="175" y1="450" x2="450" y2="450" stroke="#000" stroke-width="1.5"/>
  <line x1="450" y1="450" x2="450" y2="470" stroke="#000" stroke-width="1.5" marker-end="url(#arrow)"/>
  
  <!-- De Enregistrer à Voir nouvelles -->
  <line x1="450" y1="510" x2="450" y2="530" stroke="#000" stroke-width="1.5"/>
  <line x1="450" y1="530" x2="725" y2="530" stroke="#000" stroke-width="1.5"/>
  <line x1="725" y1="530" x2="725" y2="510" stroke="#000" stroke-width="1.5" marker-end="url(#arrow)"/>
  
  <!-- De Voir nouvelles à Confirmer -->
  <line x1="725" y1="510" x2="725" y2="550" stroke="#000" stroke-width="1.5" marker-end="url(#arrow)"/>
  
  <!-- De Confirmer à Mettre à jour -->
  <line x1="725" y1="590" x2="725" y2="610" stroke="#000" stroke-width="1.5"/>
  <line x1="725" y1="610" x2="450" y2="610" stroke="#000" stroke-width="1.5"/>
  <line x1="450" y1="610" x2="450" y2="630" stroke="#000" stroke-width="1.5" marker-end="url(#arrow)"/>
  
  <!-- De Mettre à jour à Consulter confirmation -->
  <line x1="375" y1="650" x2="250" y2="650" stroke="#000" stroke-width="1.5" marker-end="url(#arrow)"/>
  
  <!-- De Consulter confirmation à Fin -->
  <line x1="175" y1="670" x2="175" y2="705" stroke="#000" stroke-width="1.5" marker-end="url(#arrow)"/>
  
  <!-- Marqueurs de flèche -->
  <defs>
    <marker id="arrow" markerWidth="10" markerHeight="10" refX="9" refY="3" orient="auto" markerUnits="strokeWidth">
      <path d="M0,0 L0,6 L9,3 z" fill="#000"/>
    </marker>
  </defs>

  <!-- Flux d'annulation de réservation -->
  <rect x="100" y="520" width="150" height="40" rx="10" ry="10" fill="#e1f5fe" stroke="#000" stroke-width="1.5" stroke-dasharray="5,3"/>
  <text x="175" y="545" font-family="Arial" font-size="12" text-anchor="middle">Annuler réservation</text>
  
  <line x1="100" y1="540" x2="80" y2="540" stroke="#000" stroke-width="1.5" stroke-dasharray="5,3"/>
  <line x1="80" y1="540" x2="80" y2="650" stroke="#000" stroke-width="1.5" stroke-dasharray="5,3"/>
  <line x1="80" y1="650" x2="100" y2="650" stroke="#000" stroke-width="1.5" stroke-dasharray="5,3" marker-end="url(#arrow)"/>
</svg>